<svg xmlns="http://www.w3.org/2000/svg" xmlns:xlink="http://www.w3.org/1999/xlink" version="1.1" width="1862" height="914" viewBox="0 0 1862 914">
<g>
<path d="M840 40H922V137.25H840Z" fill="#ffffff"/>
<path stroke-width="1" stroke-linecap="butt" stroke-miterlimit="10" stroke-linejoin="miter" fill="none" stroke="#000000" d="M840 40H922V137.25H840Z"/>
<text xml:space="preserve" transform="matrix(1 0 0 1 0 0)" font-size="10" font-family="CourierNewPSMT"><tspan y="53.5" x="848 854 860 866 872 878 884 890 896 902 908"> X |   | X </tspan><tspan y="66.25" x="848 854 860 866 872 878 884 890 896 902 908">-----------</tspan><tspan y="79" x="848 854 860 866 872 878 884 890 896 902 908"> X | O |   </tspan><tspan y="91.75" x="848 854 860 866 872 878 884 890 896 902 908">-----------</tspan><tspan y="104.5" x="848 854 860 866 872 878 884 890 896 902 908"> O |   |   </tspan><tspan y="117.25" x="869 875 881 887">Root</tspan><tspan y="130" x="863 869 875 881 887 893">V:1000</tspan></text>
<path d="M190 173.25H272V321.5H190Z" fill="#ffffff"/>
<path stroke-width="1" stroke-linecap="butt" stroke-miterlimit="10" stroke-linejoin="miter" fill="none" stroke="#000000" d="M190 173.25H272V321.5H190Z"/>
<text xml:space="preserve" transform="matrix(1 0 0 1 0 0)" font-size="10" font-family="CourierNewPSMT"><tspan y="186.75" x="198 204 210 216 222 228 234 240 246 252 258"> X |   | X </tspan><tspan y="199.5" x="198 204 210 216 222 228 234 240 246 252 258">-----------</tspan><tspan y="212.25" x="198 204 210 216 222 228 234 240 246 252 258"> X | O |   </tspan><tspan y="225" x="198 204 210 216 222 228 234 240 246 252 258">-----------</tspan><tspan y="237.75" x="198 204 210 216 222 228 234 240 246 252 258"> O |   | O </tspan><tspan y="250.5" x="210 216 222 228 234 240 246">Move: 8</tspan><tspan y="263.25" x="216 222 228 234 240">V:224</tspan><tspan y="276" x="213 219 225 231 237 243">W:66.0</tspan><tspan y="288.75" x="210 216 222 228 234 240 246">D:144.0</tspan><tspan y="301.5" x="210 216 222 228 234 240 246">WR:0.94</tspan><tspan y="314.25" x="198 204 210 216 222 228 234 240 246 252 258">UCB1:1.1858</tspan></text>
<path stroke-width="1" stroke-linecap="butt" stroke-miterlimit="10" stroke-linejoin="miter" fill="none" stroke="#000000" d="M839.848 99.551C726.344 126.922 408.961 203.461 283.242 233.777"/>
<path d="M284.406 237.098 273.863 236.039 282.766 230.293ZM284.406 237.098"/>
<path stroke-width="1" stroke-linecap="butt" stroke-miterlimit="10" stroke-linejoin="miter" fill="none" stroke="#000000" d="M284.406 237.098 273.863 236.039 282.766 230.293ZM284.406 237.098"/>
<path d="M590 173.25H672V321.5H590Z" fill="#ffffff"/>
<path stroke-width="1" stroke-linecap="butt" stroke-miterlimit="10" stroke-linejoin="miter" fill="none" stroke="#000000" d="M590 173.25H672V321.5H590Z"/>
<text xml:space="preserve" transform="matrix(1 0 0 1 0 0)" font-size="10" font-family="CourierNewPSMT"><tspan y="186.75" x="598 604 610 616 622 628 634 640 646 652 658"> X |   | X </tspan><tspan y="199.5" x="598 604 610 616 622 628 634 640 646 652 658">-----------</tspan><tspan y="212.25" x="598 604 610 616 622 628 634 640 646 652 658"> X | O |   </tspan><tspan y="225" x="598 604 610 616 622 628 634 640 646 652 658">-----------</tspan><tspan y="237.75" x="598 604 610 616 622 628 634 640 646 652 658"> O | O |   </tspan><tspan y="250.5" x="610 616 622 628 634 640 646">Move: 7</tspan><tspan y="263.25" x="616 622 628 634 640">V:239</tspan><tspan y="276" x="610 616 622 628 634 640 646">W:226.0</tspan><tspan y="288.75" x="616 622 628 634 640">D:0.0</tspan><tspan y="301.5" x="610 616 622 628 634 640 646">WR:0.95</tspan><tspan y="314.25" x="598 604 610 616 622 628 634 640 646 652 658">UCB1:1.1860</tspan></text>
<path stroke-width="1" stroke-linecap="butt" stroke-miterlimit="10" stroke-linejoin="miter" fill="none" stroke="#000000" d="M839.719 115.508C796.473 142.625 728.488 185.25 681.934 214.438"/>
<path d="M683.957 217.301 673.625 219.648 680.238 211.371ZM683.957 217.301"/>
<path stroke-width="1" stroke-linecap="butt" stroke-miterlimit="10" stroke-linejoin="miter" fill="none" stroke="#000000" d="M683.957 217.301 673.625 219.648 680.238 211.371ZM683.957 217.301"/>
<path d="M990 173.25H1072V321.5H990Z" fill="#ffffff"/>
<path stroke-width="1" stroke-linecap="butt" stroke-miterlimit="10" stroke-linejoin="miter" fill="none" stroke="#000000" d="M990 173.25H1072V321.5H990Z"/>
<text xml:space="preserve" transform="matrix(1 0 0 1 0 0)" font-size="10" font-family="CourierNewPSMT"><tspan y="186.75" x="998 1004 1010 1016 1022 1028 1034 1040 1046 1052 1058"> X | O | X </tspan><tspan y="199.5" x="998 1004 1010 1016 1022 1028 1034 1040 1046 1052 1058">-----------</tspan><tspan y="212.25" x="998 1004 1010 1016 1022 1028 1034 1040 1046 1052 1058"> X | O |   </tspan><tspan y="225" x="998 1004 1010 1016 1022 1028 1034 1040 1046 1052 1058">-----------</tspan><tspan y="237.75" x="998 1004 1010 1016 1022 1028 1034 1040 1046 1052 1058"> O |   |   </tspan><tspan y="250.5" x="1010 1016 1022 1028 1034 1040 1046">Move: 1</tspan><tspan y="263.25" x="1016 1022 1028 1034 1040">V:399</tspan><tspan y="276" x="1010 1016 1022 1028 1034 1040 1046">W:132.0</tspan><tspan y="288.75" x="1010 1016 1022 1028 1034 1040 1046">D:267.0</tspan><tspan y="301.5" x="1010 1016 1022 1028 1034 1040 1046">WR:1.00</tspan><tspan y="314.25" x="998 1004 1010 1016 1022 1028 1034 1040 1046 1052 1058">UCB1:1.1861</tspan></text>
<path stroke-width="1" stroke-linecap="butt" stroke-miterlimit="10" stroke-linejoin="miter" fill="none" stroke="#000000" d="M922.387 132.871C940.828 152.148 962.695 174.996 981.953 195.121"/>
<path d="M984.316 192.531 988.703 202.176 979.262 197.371ZM984.316 192.531"/>
<path stroke-width="1" stroke-linecap="butt" stroke-miterlimit="10" stroke-linejoin="miter" fill="none" stroke="#000000" d="M984.316 192.531 988.703 202.176 979.262 197.371ZM984.316 192.531"/>
<path d="M1590 173.25H1672V321.5H1590Z" fill="#ffffff"/>
<path stroke-width="1" stroke-linecap="butt" stroke-miterlimit="10" stroke-linejoin="miter" fill="none" stroke="#000000" d="M1590 173.25H1672V321.5H1590Z"/>
<text xml:space="preserve" transform="matrix(1 0 0 1 0 0)" font-size="10" font-family="CourierNewPSMT"><tspan y="186.75" x="1598 1604 1610 1616 1622 1628 1634 1640 1646 1652 1658"> X |   | X </tspan><tspan y="199.5" x="1598 1604 1610 1616 1622 1628 1634 1640 1646 1652 1658">-----------</tspan><tspan y="212.25" x="1598 1604 1610 1616 1622 1628 1634 1640 1646 1652 1658"> X | O | O </tspan><tspan y="225" x="1598 1604 1610 1616 1622 1628 1634 1640 1646 1652 1658">-----------</tspan><tspan y="237.75" x="1598 1604 1610 1616 1622 1628 1634 1640 1646 1652 1658"> O |   |   </tspan><tspan y="250.5" x="1610 1616 1622 1628 1634 1640 1646">Move: 5</tspan><tspan y="263.25" x="1616 1622 1628 1634 1640">V:138</tspan><tspan y="276" x="1616 1622 1628 1634 1640">W:0.0</tspan><tspan y="288.75" x="1610 1616 1622 1628 1634 1640 1646">D:120.0</tspan><tspan y="301.5" x="1610 1616 1622 1628 1634 1640 1646">WR:0.87</tspan><tspan y="314.25" x="1598 1604 1610 1616 1622 1628 1634 1640 1646 1652 1658">UCB1:1.1860</tspan></text>
<path stroke-width="1" stroke-linecap="butt" stroke-miterlimit="10" stroke-linejoin="miter" fill="none" stroke="#000000" d="M922.391 98.277C1050.062 124.957 1437.605 205.957 1578.816 235.469"/>
<path d="M1579.184 231.969 1588.254 237.441 1577.75 238.82ZM1579.184 231.969"/>
<path stroke-width="1" stroke-linecap="butt" stroke-miterlimit="10" stroke-linejoin="miter" fill="none" stroke="#000000" d="M1579.184 231.969 1588.254 237.441 1577.75 238.82ZM1579.184 231.969"/>
<path d="M40 357.5H122V505.75H40Z" fill="#ffffff"/>
<path stroke-width="1" stroke-linecap="butt" stroke-miterlimit="10" stroke-linejoin="miter" fill="none" stroke="#000000" d="M40 357.5H122V505.75H40Z"/>
<text xml:space="preserve" transform="matrix(1 0 0 1 0 0)" font-size="10" font-family="CourierNewPSMT"><tspan y="371" x="48 54 60 66 72 78 84 90 96 102 108"> X | X | X </tspan><tspan y="383.75" x="48 54 60 66 72 78 84 90 96 102 108">-----------</tspan><tspan y="396.5" x="48 54 60 66 72 78 84 90 96 102 108"> X | O |   </tspan><tspan y="409.25" x="48 54 60 66 72 78 84 90 96 102 108">-----------</tspan><tspan y="422" x="48 54 60 66 72 78 84 90 96 102 108"> O |   | O </tspan><tspan y="434.75" x="60 66 72 78 84 90 96">Move: 1</tspan><tspan y="447.5" x="72 78 84">V:7</tspan><tspan y="460.25" x="66 72 78 84 90">W:0.0</tspan><tspan y="473" x="66 72 78 84 90">D:0.0</tspan><tspan y="485.75" x="60 66 72 78 84 90 96">WR:0.00</tspan><tspan y="498.5" x="48 54 60 66 72 78 84 90 96 102 108">UCB1:1.2435</tspan></text>
<path stroke-width="1" stroke-linecap="butt" stroke-miterlimit="10" stroke-linejoin="miter" fill="none" stroke="#000000" d="M189.637 290.672C171.031 310.402 149.211 334.551 131 357.5 130.371 358.289 129.746 359.09 129.117 359.895"/>
<path d="M132.152 361.684 123.312 367.523 126.582 357.445ZM132.152 361.684"/>
<path stroke-width="1" stroke-linecap="butt" stroke-miterlimit="10" stroke-linejoin="miter" fill="none" stroke="#000000" d="M132.152 361.684 123.312 367.523 126.582 357.445ZM132.152 361.684"/>
<path d="M140 357.5H222V505.75H140Z" fill="#ffffff"/>
<path stroke-width="1" stroke-linecap="butt" stroke-miterlimit="10" stroke-linejoin="miter" fill="none" stroke="#000000" d="M140 357.5H222V505.75H140Z"/>
<text xml:space="preserve" transform="matrix(1 0 0 1 0 0)" font-size="10" font-family="CourierNewPSMT"><tspan y="371" x="148 154 160 166 172 178 184 190 196 202 208"> X |   | X </tspan><tspan y="383.75" x="148 154 160 166 172 178 184 190 196 202 208">-----------</tspan><tspan y="396.5" x="148 154 160 166 172 178 184 190 196 202 208"> X | O |   </tspan><tspan y="409.25" x="148 154 160 166 172 178 184 190 196 202 208">-----------</tspan><tspan y="422" x="148 154 160 166 172 178 184 190 196 202 208"> O | X | O </tspan><tspan y="434.75" x="160 166 172 178 184 190 196">Move: 7</tspan><tspan y="447.5" x="169 175 181 187">V:85</tspan><tspan y="460.25" x="166 172 178 184 190">W:0.0</tspan><tspan y="473" x="163 169 175 181 187 193">D:79.0</tspan><tspan y="485.75" x="160 166 172 178 184 190 196">WR:0.93</tspan><tspan y="498.5" x="148 154 160 166 172 178 184 190 196 202 208">UCB1:1.2862</tspan></text>
<path stroke-width="1" stroke-linecap="butt" stroke-miterlimit="10" stroke-linejoin="miter" fill="none" stroke="#000000" d="M210.809 321.977C208.629 329.926 206.395 338.055 204.184 346.117"/>
<path d="M207.609 346.867 201.586 355.586 200.859 345.016ZM207.609 346.867"/>
<path stroke-width="1" stroke-linecap="butt" stroke-miterlimit="10" stroke-linejoin="miter" fill="none" stroke="#000000" d="M207.609 346.867 201.586 355.586 200.859 345.016ZM207.609 346.867"/>
<path d="M240 357.5H322V505.75H240Z" fill="#ffffff"/>
<path stroke-width="1" stroke-linecap="butt" stroke-miterlimit="10" stroke-linejoin="miter" fill="none" stroke="#000000" d="M240 357.5H322V505.75H240Z"/>
<text xml:space="preserve" transform="matrix(1 0 0 1 0 0)" font-size="10" font-family="CourierNewPSMT"><tspan y="371" x="248 254 260 266 272 278 284 290 296 302 308"> X |   | X </tspan><tspan y="383.75" x="248 254 260 266 272 278 284 290 296 302 308">-----------</tspan><tspan y="396.5" x="248 254 260 266 272 278 284 290 296 302 308"> X | O | X </tspan><tspan y="409.25" x="248 254 260 266 272 278 284 290 296 302 308">-----------</tspan><tspan y="422" x="248 254 260 266 272 278 284 290 296 302 308"> O |   | O </tspan><tspan y="434.75" x="260 266 272 278 284 290 296">Move: 5</tspan><tspan y="447.5" x="266 272 278 284 290">V:131</tspan><tspan y="460.25" x="263 269 275 281 287 293">W:66.0</tspan><tspan y="473" x="263 269 275 281 287 293">D:65.0</tspan><tspan y="485.75" x="260 266 272 278 284 290 296">WR:1.00</tspan><tspan y="498.5" x="248 254 260 266 272 278 284 290 296 302 308">UCB1:1.2874</tspan></text>
<path stroke-width="1" stroke-linecap="butt" stroke-miterlimit="10" stroke-linejoin="miter" fill="none" stroke="#000000" d="M251.191 321.977C253.371 329.926 255.605 338.055 257.816 346.117"/>
<path d="M261.141 345.016 260.414 355.586 254.391 346.867ZM261.141 345.016"/>
<path stroke-width="1" stroke-linecap="butt" stroke-miterlimit="10" stroke-linejoin="miter" fill="none" stroke="#000000" d="M261.141 345.016 260.414 355.586 254.391 346.867ZM261.141 345.016"/>
<path d="M40 541.75H122V690H40Z" fill="#ffffff"/>
<path stroke-width="1" stroke-linecap="butt" stroke-miterlimit="10" stroke-linejoin="miter" fill="none" stroke="#000000" d="M40 541.75H122V690H40Z"/>
<text xml:space="preserve" transform="matrix(1 0 0 1 0 0)" font-size="10" font-family="CourierNewPSMT"><tspan y="555.25" x="48 54 60 66 72 78 84 90 96 102 108"> X | O | X </tspan><tspan y="568" x="48 54 60 66 72 78 84 90 96 102 108">-----------</tspan><tspan y="580.75" x="48 54 60 66 72 78 84 90 96 102 108"> X | O |   </tspan><tspan y="593.5" x="48 54 60 66 72 78 84 90 96 102 108">-----------</tspan><tspan y="606.25" x="48 54 60 66 72 78 84 90 96 102 108"> O | X | O </tspan><tspan y="619" x="60 66 72 78 84 90 96">Move: 1</tspan><tspan y="631.75" x="69 75 81 87">V:79</tspan><tspan y="644.5" x="66 72 78 84 90">W:0.0</tspan><tspan y="657.25" x="63 69 75 81 87 93">D:79.0</tspan><tspan y="670" x="60 66 72 78 84 90 96">WR:1.00</tspan><tspan y="682.75" x="48 54 60 66 72 78 84 90 96 102 108">UCB1:1.3354</tspan></text>
<path stroke-width="1" stroke-linecap="butt" stroke-miterlimit="10" stroke-linejoin="miter" fill="none" stroke="#000000" d="M140.613 506.227C136.055 514.535 131.387 523.047 126.766 531.465"/>
<path d="M129.98 532.883 122.102 539.969 123.844 529.516ZM129.98 532.883"/>
<path stroke-width="1" stroke-linecap="butt" stroke-miterlimit="10" stroke-linejoin="miter" fill="none" stroke="#000000" d="M129.98 532.883 122.102 539.969 123.844 529.516ZM129.98 532.883"/>
<path d="M140 541.75H222V690H140Z" fill="#ffffff"/>
<path stroke-width="1" stroke-linecap="butt" stroke-miterlimit="10" stroke-linejoin="miter" fill="none" stroke="#000000" d="M140 541.75H222V690H140Z"/>
<text xml:space="preserve" transform="matrix(1 0 0 1 0 0)" font-size="10" font-family="CourierNewPSMT"><tspan y="555.25" x="148 154 160 166 172 178 184 190 196 202 208"> X |   | X </tspan><tspan y="568" x="148 154 160 166 172 178 184 190 196 202 208">-----------</tspan><tspan y="580.75" x="148 154 160 166 172 178 184 190 196 202 208"> X | O | O </tspan><tspan y="593.5" x="148 154 160 166 172 178 184 190 196 202 208">-----------</tspan><tspan y="606.25" x="148 154 160 166 172 178 184 190 196 202 208"> O | X | O </tspan><tspan y="619" x="160 166 172 178 184 190 196">Move: 5</tspan><tspan y="631.75" x="172 178 184">V:5</tspan><tspan y="644.5" x="166 172 178 184 190">W:0.0</tspan><tspan y="657.25" x="166 172 178 184 190">D:0.0</tspan><tspan y="670" x="160 166 172 178 184 190 196">WR:0.00</tspan><tspan y="682.75" x="148 154 160 166 172 178 184 190 196 202 208">UCB1:1.3331</tspan></text>
<path stroke-width="1" stroke-linecap="butt" stroke-miterlimit="10" stroke-linejoin="miter" fill="none" stroke="#000000" d="M181 506.227C181 513.992 181 521.938 181 529.816"/>
<path d="M184.5 529.781 181 539.781 177.5 529.781ZM184.5 529.781"/>
<path stroke-width="1" stroke-linecap="butt" stroke-miterlimit="10" stroke-linejoin="miter" fill="none" stroke="#000000" d="M184.5 529.781 181 539.781 177.5 529.781ZM184.5 529.781"/>
<path d="M40 726H122V874.25H40Z" fill="#ffffff"/>
<path stroke-width="1" stroke-linecap="butt" stroke-miterlimit="10" stroke-linejoin="miter" fill="none" stroke="#000000" d="M40 726H122V874.25H40Z"/>
<text xml:space="preserve" transform="matrix(1 0 0 1 0 0)" font-size="10" font-family="CourierNewPSMT"><tspan y="739.5" x="48 54 60 66 72 78 84 90 96 102 108"> X | O | X </tspan><tspan y="752.25" x="48 54 60 66 72 78 84 90 96 102 108">-----------</tspan><tspan y="765" x="48 54 60 66 72 78 84 90 96 102 108"> X | O | X </tspan><tspan y="777.75" x="48 54 60 66 72 78 84 90 96 102 108">-----------</tspan><tspan y="790.5" x="48 54 60 66 72 78 84 90 96 102 108"> O | X | O </tspan><tspan y="803.25" x="60 66 72 78 84 90 96">Move: 5</tspan><tspan y="816" x="69 75 81 87">V:78</tspan><tspan y="828.75" x="66 72 78 84 90">W:0.0</tspan><tspan y="841.5" x="63 69 75 81 87 93">D:78.0</tspan><tspan y="854.25" x="60 66 72 78 84 90 96">WR:1.00</tspan><tspan y="867" x="48 54 60 66 72 78 84 90 96 102 108">UCB1:1.3347</tspan></text>
<path stroke-width="1" stroke-linecap="butt" stroke-miterlimit="10" stroke-linejoin="miter" fill="none" stroke="#000000" d="M81 690.477C81 698.242 81 706.188 81 714.066"/>
<path d="M84.5 714.031 81 724.031 77.5 714.031ZM84.5 714.031"/>
<path stroke-width="1" stroke-linecap="butt" stroke-miterlimit="10" stroke-linejoin="miter" fill="none" stroke="#000000" d="M84.5 714.031 81 724.031 77.5 714.031ZM84.5 714.031"/>
<path d="M140 726H222V874.25H140Z" fill="#ffffff"/>
<path stroke-width="1" stroke-linecap="butt" stroke-miterlimit="10" stroke-linejoin="miter" fill="none" stroke="#000000" d="M140 726H222V874.25H140Z"/>
<text xml:space="preserve" transform="matrix(1 0 0 1 0 0)" font-size="10" font-family="CourierNewPSMT"><tspan y="739.5" x="148 154 160 166 172 178 184 190 196 202 208"> X | X | X </tspan><tspan y="752.25" x="148 154 160 166 172 178 184 190 196 202 208">-----------</tspan><tspan y="765" x="148 154 160 166 172 178 184 190 196 202 208"> X | O | O </tspan><tspan y="777.75" x="148 154 160 166 172 178 184 190 196 202 208">-----------</tspan><tspan y="790.5" x="148 154 160 166 172 178 184 190 196 202 208"> O | X | O </tspan><tspan y="803.25" x="160 166 172 178 184 190 196">Move: 1</tspan><tspan y="816" x="172 178 184">V:4</tspan><tspan y="828.75" x="166 172 178 184 190">W:0.0</tspan><tspan y="841.5" x="166 172 178 184 190">D:0.0</tspan><tspan y="854.25" x="160 166 172 178 184 190 196">WR:0.00</tspan><tspan y="867" x="148 154 160 166 172 178 184 190 196 202 208">UCB1:0.8971</tspan></text>
<path stroke-width="1" stroke-linecap="butt" stroke-miterlimit="10" stroke-linejoin="miter" fill="none" stroke="#000000" d="M181 690.477C181 698.242 181 706.188 181 714.066"/>
<path d="M184.5 714.031 181 724.031 177.5 714.031ZM184.5 714.031"/>
<path stroke-width="1" stroke-linecap="butt" stroke-miterlimit="10" stroke-linejoin="miter" fill="none" stroke="#000000" d="M184.5 714.031 181 724.031 177.5 714.031ZM184.5 714.031"/>
<path d="M240 541.75H322V690H240Z" fill="#ffffff"/>
<path stroke-width="1" stroke-linecap="butt" stroke-miterlimit="10" stroke-linejoin="miter" fill="none" stroke="#000000" d="M240 541.75H322V690H240Z"/>
<text xml:space="preserve" transform="matrix(1 0 0 1 0 0)" font-size="10" font-family="CourierNewPSMT"><tspan y="555.25" x="248 254 260 266 272 278 284 290 296 302 308"> X | O | X </tspan><tspan y="568" x="248 254 260 266 272 278 284 290 296 302 308">-----------</tspan><tspan y="580.75" x="248 254 260 266 272 278 284 290 296 302 308"> X | O | X </tspan><tspan y="593.5" x="248 254 260 266 272 278 284 290 296 302 308">-----------</tspan><tspan y="606.25" x="248 254 260 266 272 278 284 290 296 302 308"> O |   | O </tspan><tspan y="619" x="260 266 272 278 284 290 296">Move: 1</tspan><tspan y="631.75" x="269 275 281 287">V:65</tspan><tspan y="644.5" x="266 272 278 284 290">W:0.0</tspan><tspan y="657.25" x="263 269 275 281 287 293">D:65.0</tspan><tspan y="670" x="260 266 272 278 284 290 296">WR:1.00</tspan><tspan y="682.75" x="248 254 260 266 272 278 284 290 296 302 308">UCB1:1.3873</tspan></text>
<path stroke-width="1" stroke-linecap="butt" stroke-miterlimit="10" stroke-linejoin="miter" fill="none" stroke="#000000" d="M281 506.227C281 513.992 281 521.938 281 529.816"/>
<path d="M284.5 529.781 281 539.781 277.5 529.781ZM284.5 529.781"/>
<path stroke-width="1" stroke-linecap="butt" stroke-miterlimit="10" stroke-linejoin="miter" fill="none" stroke="#000000" d="M284.5 529.781 281 539.781 277.5 529.781ZM284.5 529.781"/>
<path d="M340 541.75H422V690H340Z" fill="#ffffff"/>
<path stroke-width="1" stroke-linecap="butt" stroke-miterlimit="10" stroke-linejoin="miter" fill="none" stroke="#000000" d="M340 541.75H422V690H340Z"/>
<text xml:space="preserve" transform="matrix(1 0 0 1 0 0)" font-size="10" font-family="CourierNewPSMT"><tspan y="555.25" x="348 354 360 366 372 378 384 390 396 402 408"> X |   | X </tspan><tspan y="568" x="348 354 360 366 372 378 384 390 396 402 408">-----------</tspan><tspan y="580.75" x="348 354 360 366 372 378 384 390 396 402 408"> X | O | X </tspan><tspan y="593.5" x="348 354 360 366 372 378 384 390 396 402 408">-----------</tspan><tspan y="606.25" x="348 354 360 366 372 378 384 390 396 402 408"> O | O | O </tspan><tspan y="619" x="360 366 372 378 384 390 396">Move: 7</tspan><tspan y="631.75" x="369 375 381 387">V:65</tspan><tspan y="644.5" x="363 369 375 381 387 393">W:65.0</tspan><tspan y="657.25" x="366 372 378 384 390">D:0.0</tspan><tspan y="670" x="360 366 372 378 384 390 396">WR:1.00</tspan><tspan y="682.75" x="348 354 360 366 372 378 384 390 396 402 408">UCB1:1.3873</tspan></text>
<path stroke-width="1" stroke-linecap="butt" stroke-miterlimit="10" stroke-linejoin="miter" fill="none" stroke="#000000" d="M321.387 506.227C325.945 514.535 330.613 523.047 335.234 531.465"/>
<path d="M338.156 529.516 339.898 539.969 332.02 532.883ZM338.156 529.516"/>
<path stroke-width="1" stroke-linecap="butt" stroke-miterlimit="10" stroke-linejoin="miter" fill="none" stroke="#000000" d="M338.156 529.516 339.898 539.969 332.02 532.883ZM338.156 529.516"/>
<path d="M240 726H322V874.25H240Z" fill="#ffffff"/>
<path stroke-width="1" stroke-linecap="butt" stroke-miterlimit="10" stroke-linejoin="miter" fill="none" stroke="#000000" d="M240 726H322V874.25H240Z"/>
<text xml:space="preserve" transform="matrix(1 0 0 1 0 0)" font-size="10" font-family="CourierNewPSMT"><tspan y="739.5" x="248 254 260 266 272 278 284 290 296 302 308"> X | O | X </tspan><tspan y="752.25" x="248 254 260 266 272 278 284 290 296 302 308">-----------</tspan><tspan y="765" x="248 254 260 266 272 278 284 290 296 302 308"> X | O | X </tspan><tspan y="777.75" x="248 254 260 266 272 278 284 290 296 302 308">-----------</tspan><tspan y="790.5" x="248 254 260 266 272 278 284 290 296 302 308"> O | X | O </tspan><tspan y="803.25" x="260 266 272 278 284 290 296">Move: 7</tspan><tspan y="816" x="269 275 281 287">V:64</tspan><tspan y="828.75" x="266 272 278 284 290">W:0.0</tspan><tspan y="841.5" x="263 269 275 281 287 293">D:64.0</tspan><tspan y="854.25" x="260 266 272 278 284 290 296">WR:1.00</tspan><tspan y="867" x="248 254 260 266 272 278 284 290 296 302 308">UCB1:1.3612</tspan></text>
<path stroke-width="1" stroke-linecap="butt" stroke-miterlimit="10" stroke-linejoin="miter" fill="none" stroke="#000000" d="M281 690.477C281 698.242 281 706.188 281 714.066"/>
<path d="M284.5 714.031 281 724.031 277.5 714.031ZM284.5 714.031"/>
<path stroke-width="1" stroke-linecap="butt" stroke-miterlimit="10" stroke-linejoin="miter" fill="none" stroke="#000000" d="M284.5 714.031 281 724.031 277.5 714.031ZM284.5 714.031"/>
<path d="M440 357.5H522V505.75H440Z" fill="#ffffff"/>
<path stroke-width="1" stroke-linecap="butt" stroke-miterlimit="10" stroke-linejoin="miter" fill="none" stroke="#000000" d="M440 357.5H522V505.75H440Z"/>
<text xml:space="preserve" transform="matrix(1 0 0 1 0 0)" font-size="10" font-family="CourierNewPSMT"><tspan y="371" x="448 454 460 466 472 478 484 490 496 502 508"> X | X | X </tspan><tspan y="383.75" x="448 454 460 466 472 478 484 490 496 502 508">-----------</tspan><tspan y="396.5" x="448 454 460 466 472 478 484 490 496 502 508"> X | O |   </tspan><tspan y="409.25" x="448 454 460 466 472 478 484 490 496 502 508">-----------</tspan><tspan y="422" x="448 454 460 466 472 478 484 490 496 502 508"> O | O |   </tspan><tspan y="434.75" x="460 466 472 478 484 490 496">Move: 1</tspan><tspan y="447.5" x="472 478 484">V:7</tspan><tspan y="460.25" x="466 472 478 484 490">W:0.0</tspan><tspan y="473" x="466 472 478 484 490">D:0.0</tspan><tspan y="485.75" x="460 466 472 478 484 490 496">WR:0.00</tspan><tspan y="498.5" x="448 454 460 466 472 478 484 490 496 502 508">UCB1:1.2509</tspan></text>
<path stroke-width="1" stroke-linecap="butt" stroke-miterlimit="10" stroke-linejoin="miter" fill="none" stroke="#000000" d="M589.637 290.672C571.031 310.402 549.211 334.551 531 357.5 530.371 358.289 529.746 359.09 529.117 359.895"/>
<path d="M532.152 361.684 523.312 367.523 526.582 357.445ZM532.152 361.684"/>
<path stroke-width="1" stroke-linecap="butt" stroke-miterlimit="10" stroke-linejoin="miter" fill="none" stroke="#000000" d="M532.152 361.684 523.312 367.523 526.582 357.445ZM532.152 361.684"/>
<path d="M540 357.5H622V505.75H540Z" fill="#ffffff"/>
<path stroke-width="1" stroke-linecap="butt" stroke-miterlimit="10" stroke-linejoin="miter" fill="none" stroke="#000000" d="M540 357.5H622V505.75H540Z"/>
<text xml:space="preserve" transform="matrix(1 0 0 1 0 0)" font-size="10" font-family="CourierNewPSMT"><tspan y="371" x="548 554 560 566 572 578 584 590 596 602 608"> X |   | X </tspan><tspan y="383.75" x="548 554 560 566 572 578 584 590 596 602 608">-----------</tspan><tspan y="396.5" x="548 554 560 566 572 578 584 590 596 602 608"> X | O | X </tspan><tspan y="409.25" x="548 554 560 566 572 578 584 590 596 602 608">-----------</tspan><tspan y="422" x="548 554 560 566 572 578 584 590 596 602 608"> O | O |   </tspan><tspan y="434.75" x="560 566 572 578 584 590 596">Move: 5</tspan><tspan y="447.5" x="566 572 578 584 590">V:139</tspan><tspan y="460.25" x="560 566 572 578 584 590 596">W:139.0</tspan><tspan y="473" x="566 572 578 584 590">D:0.0</tspan><tspan y="485.75" x="560 566 572 578 584 590 596">WR:1.00</tspan><tspan y="498.5" x="548 554 560 566 572 578 584 590 596 602 608">UCB1:1.2807</tspan></text>
<path stroke-width="1" stroke-linecap="butt" stroke-miterlimit="10" stroke-linejoin="miter" fill="none" stroke="#000000" d="M610.809 321.977C608.629 329.926 606.395 338.055 604.184 346.117"/>
<path d="M607.609 346.867 601.586 355.586 600.859 345.016ZM607.609 346.867"/>
<path stroke-width="1" stroke-linecap="butt" stroke-miterlimit="10" stroke-linejoin="miter" fill="none" stroke="#000000" d="M607.609 346.867 601.586 355.586 600.859 345.016ZM607.609 346.867"/>
<path d="M640 357.5H722V505.75H640Z" fill="#ffffff"/>
<path stroke-width="1" stroke-linecap="butt" stroke-miterlimit="10" stroke-linejoin="miter" fill="none" stroke="#000000" d="M640 357.5H722V505.75H640Z"/>
<text xml:space="preserve" transform="matrix(1 0 0 1 0 0)" font-size="10" font-family="CourierNewPSMT"><tspan y="371" x="648 654 660 666 672 678 684 690 696 702 708"> X |   | X </tspan><tspan y="383.75" x="648 654 660 666 672 678 684 690 696 702 708">-----------</tspan><tspan y="396.5" x="648 654 660 666 672 678 684 690 696 702 708"> X | O |   </tspan><tspan y="409.25" x="648 654 660 666 672 678 684 690 696 702 708">-----------</tspan><tspan y="422" x="648 654 660 666 672 678 684 690 696 702 708"> O | O | X </tspan><tspan y="434.75" x="660 666 672 678 684 690 696">Move: 8</tspan><tspan y="447.5" x="669 675 681 687">V:92</tspan><tspan y="460.25" x="663 669 675 681 687 693">W:86.0</tspan><tspan y="473" x="666 672 678 684 690">D:0.0</tspan><tspan y="485.75" x="660 666 672 678 684 690 696">WR:0.93</tspan><tspan y="498.5" x="648 654 660 666 672 678 684 690 696 702 708">UCB1:1.2798</tspan></text>
<path stroke-width="1" stroke-linecap="butt" stroke-miterlimit="10" stroke-linejoin="miter" fill="none" stroke="#000000" d="M651.191 321.977C653.371 329.926 655.605 338.055 657.816 346.117"/>
<path d="M661.141 345.016 660.414 355.586 654.391 346.867ZM661.141 345.016"/>
<path stroke-width="1" stroke-linecap="butt" stroke-miterlimit="10" stroke-linejoin="miter" fill="none" stroke="#000000" d="M661.141 345.016 660.414 355.586 654.391 346.867ZM661.141 345.016"/>
<path d="M440 541.75H522V690H440Z" fill="#ffffff"/>
<path stroke-width="1" stroke-linecap="butt" stroke-miterlimit="10" stroke-linejoin="miter" fill="none" stroke="#000000" d="M440 541.75H522V690H440Z"/>
<text xml:space="preserve" transform="matrix(1 0 0 1 0 0)" font-size="10" font-family="CourierNewPSMT"><tspan y="555.25" x="448 454 460 466 472 478 484 490 496 502 508"> X | O | X </tspan><tspan y="568" x="448 454 460 466 472 478 484 490 496 502 508">-----------</tspan><tspan y="580.75" x="448 454 460 466 472 478 484 490 496 502 508"> X | O | X </tspan><tspan y="593.5" x="448 454 460 466 472 478 484 490 496 502 508">-----------</tspan><tspan y="606.25" x="448 454 460 466 472 478 484 490 496 502 508"> O | O |   </tspan><tspan y="619" x="460 466 472 478 484 490 496">Move: 1</tspan><tspan y="631.75" x="469 475 481 487">V:69</tspan><tspan y="644.5" x="463 469 475 481 487 493">W:69.0</tspan><tspan y="657.25" x="466 472 478 484 490">D:0.0</tspan><tspan y="670" x="460 466 472 478 484 490 496">WR:1.00</tspan><tspan y="682.75" x="448 454 460 466 472 478 484 490 496 502 508">UCB1:1.3782</tspan></text>
<path stroke-width="1" stroke-linecap="butt" stroke-miterlimit="10" stroke-linejoin="miter" fill="none" stroke="#000000" d="M540.613 506.227C536.055 514.535 531.387 523.047 526.766 531.465"/>
<path d="M529.98 532.883 522.102 539.969 523.844 529.516ZM529.98 532.883"/>
<path stroke-width="1" stroke-linecap="butt" stroke-miterlimit="10" stroke-linejoin="miter" fill="none" stroke="#000000" d="M529.98 532.883 522.102 539.969 523.844 529.516ZM529.98 532.883"/>
<path d="M540 541.75H622V690H540Z" fill="#ffffff"/>
<path stroke-width="1" stroke-linecap="butt" stroke-miterlimit="10" stroke-linejoin="miter" fill="none" stroke="#000000" d="M540 541.75H622V690H540Z"/>
<text xml:space="preserve" transform="matrix(1 0 0 1 0 0)" font-size="10" font-family="CourierNewPSMT"><tspan y="555.25" x="548 554 560 566 572 578 584 590 596 602 608"> X |   | X </tspan><tspan y="568" x="548 554 560 566 572 578 584 590 596 602 608">-----------</tspan><tspan y="580.75" x="548 554 560 566 572 578 584 590 596 602 608"> X | O | X </tspan><tspan y="593.5" x="548 554 560 566 572 578 584 590 596 602 608">-----------</tspan><tspan y="606.25" x="548 554 560 566 572 578 584 590 596 602 608"> O | O | O </tspan><tspan y="619" x="560 566 572 578 584 590 596">Move: 8</tspan><tspan y="631.75" x="569 575 581 587">V:69</tspan><tspan y="644.5" x="563 569 575 581 587 593">W:69.0</tspan><tspan y="657.25" x="566 572 578 584 590">D:0.0</tspan><tspan y="670" x="560 566 572 578 584 590 596">WR:1.00</tspan><tspan y="682.75" x="548 554 560 566 572 578 584 590 596 602 608">UCB1:1.3782</tspan></text>
<path stroke-width="1" stroke-linecap="butt" stroke-miterlimit="10" stroke-linejoin="miter" fill="none" stroke="#000000" d="M581 506.227C581 513.992 581 521.938 581 529.816"/>
<path d="M584.5 529.781 581 539.781 577.5 529.781ZM584.5 529.781"/>
<path stroke-width="1" stroke-linecap="butt" stroke-miterlimit="10" stroke-linejoin="miter" fill="none" stroke="#000000" d="M584.5 529.781 581 539.781 577.5 529.781ZM584.5 529.781"/>
<path d="M640 541.75H722V690H640Z" fill="#ffffff"/>
<path stroke-width="1" stroke-linecap="butt" stroke-miterlimit="10" stroke-linejoin="miter" fill="none" stroke="#000000" d="M640 541.75H722V690H640Z"/>
<text xml:space="preserve" transform="matrix(1 0 0 1 0 0)" font-size="10" font-family="CourierNewPSMT"><tspan y="555.25" x="648 654 660 666 672 678 684 690 696 702 708"> X | O | X </tspan><tspan y="568" x="648 654 660 666 672 678 684 690 696 702 708">-----------</tspan><tspan y="580.75" x="648 654 660 666 672 678 684 690 696 702 708"> X | O |   </tspan><tspan y="593.5" x="648 654 660 666 672 678 684 690 696 702 708">-----------</tspan><tspan y="606.25" x="648 654 660 666 672 678 684 690 696 702 708"> O | O | X </tspan><tspan y="619" x="660 666 672 678 684 690 696">Move: 1</tspan><tspan y="631.75" x="669 675 681 687">V:85</tspan><tspan y="644.5" x="663 669 675 681 687 693">W:85.0</tspan><tspan y="657.25" x="666 672 678 684 690">D:0.0</tspan><tspan y="670" x="660 666 672 678 684 690 696">WR:1.00</tspan><tspan y="682.75" x="648 654 660 666 672 678 684 690 696 702 708">UCB1:1.3262</tspan></text>
<path stroke-width="1" stroke-linecap="butt" stroke-miterlimit="10" stroke-linejoin="miter" fill="none" stroke="#000000" d="M681 506.227C681 513.992 681 521.938 681 529.816"/>
<path d="M684.5 529.781 681 539.781 677.5 529.781ZM684.5 529.781"/>
<path stroke-width="1" stroke-linecap="butt" stroke-miterlimit="10" stroke-linejoin="miter" fill="none" stroke="#000000" d="M684.5 529.781 681 539.781 677.5 529.781ZM684.5 529.781"/>
<path d="M740 541.75H822V690H740Z" fill="#ffffff"/>
<path stroke-width="1" stroke-linecap="butt" stroke-miterlimit="10" stroke-linejoin="miter" fill="none" stroke="#000000" d="M740 541.75H822V690H740Z"/>
<text xml:space="preserve" transform="matrix(1 0 0 1 0 0)" font-size="10" font-family="CourierNewPSMT"><tspan y="555.25" x="748 754 760 766 772 778 784 790 796 802 808"> X |   | X </tspan><tspan y="568" x="748 754 760 766 772 778 784 790 796 802 808">-----------</tspan><tspan y="580.75" x="748 754 760 766 772 778 784 790 796 802 808"> X | O | O </tspan><tspan y="593.5" x="748 754 760 766 772 778 784 790 796 802 808">-----------</tspan><tspan y="606.25" x="748 754 760 766 772 778 784 790 796 802 808"> O | O | X </tspan><tspan y="619" x="760 766 772 778 784 790 796">Move: 5</tspan><tspan y="631.75" x="772 778 784">V:6</tspan><tspan y="644.5" x="766 772 778 784 790">W:0.0</tspan><tspan y="657.25" x="766 772 778 784 790">D:0.0</tspan><tspan y="670" x="760 766 772 778 784 790 796">WR:0.00</tspan><tspan y="682.75" x="748 754 760 766 772 778 784 790 796 802 808">UCB1:1.2277</tspan></text>
<path stroke-width="1" stroke-linecap="butt" stroke-miterlimit="10" stroke-linejoin="miter" fill="none" stroke="#000000" d="M721.387 506.227C725.945 514.535 730.613 523.047 735.234 531.465"/>
<path d="M738.156 529.516 739.898 539.969 732.02 532.883ZM738.156 529.516"/>
<path stroke-width="1" stroke-linecap="butt" stroke-miterlimit="10" stroke-linejoin="miter" fill="none" stroke="#000000" d="M738.156 529.516 739.898 539.969 732.02 532.883ZM738.156 529.516"/>
<path d="M740 726H822V874.25H740Z" fill="#ffffff"/>
<path stroke-width="1" stroke-linecap="butt" stroke-miterlimit="10" stroke-linejoin="miter" fill="none" stroke="#000000" d="M740 726H822V874.25H740Z"/>
<text xml:space="preserve" transform="matrix(1 0 0 1 0 0)" font-size="10" font-family="CourierNewPSMT"><tspan y="739.5" x="748 754 760 766 772 778 784 790 796 802 808"> X | X | X </tspan><tspan y="752.25" x="748 754 760 766 772 778 784 790 796 802 808">-----------</tspan><tspan y="765" x="748 754 760 766 772 778 784 790 796 802 808"> X | O | O </tspan><tspan y="777.75" x="748 754 760 766 772 778 784 790 796 802 808">-----------</tspan><tspan y="790.5" x="748 754 760 766 772 778 784 790 796 802 808"> O | O | X </tspan><tspan y="803.25" x="760 766 772 778 784 790 796">Move: 1</tspan><tspan y="816" x="772 778 784">V:5</tspan><tspan y="828.75" x="766 772 778 784 790">W:0.0</tspan><tspan y="841.5" x="766 772 778 784 790">D:0.0</tspan><tspan y="854.25" x="760 766 772 778 784 790 796">WR:0.00</tspan><tspan y="867" x="748 754 760 766 772 778 784 790 796 802 808">UCB1:0.8466</tspan></text>
<path stroke-width="1" stroke-linecap="butt" stroke-miterlimit="10" stroke-linejoin="miter" fill="none" stroke="#000000" d="M781 690.477C781 698.242 781 706.188 781 714.066"/>
<path d="M784.5 714.031 781 724.031 777.5 714.031ZM784.5 714.031"/>
<path stroke-width="1" stroke-linecap="butt" stroke-miterlimit="10" stroke-linejoin="miter" fill="none" stroke="#000000" d="M784.5 714.031 781 724.031 777.5 714.031ZM784.5 714.031"/>
<path d="M940 357.5H1022V505.75H940Z" fill="#ffffff"/>
<path stroke-width="1" stroke-linecap="butt" stroke-miterlimit="10" stroke-linejoin="miter" fill="none" stroke="#000000" d="M940 357.5H1022V505.75H940Z"/>
<text xml:space="preserve" transform="matrix(1 0 0 1 0 0)" font-size="10" font-family="CourierNewPSMT"><tspan y="371" x="948 954 960 966 972 978 984 990 996 1002 1008"> X | O | X </tspan><tspan y="383.75" x="948 954 960 966 972 978 984 990 996 1002 1008">-----------</tspan><tspan y="396.5" x="948 954 960 966 972 978 984 990 996 1002 1008"> X | O |   </tspan><tspan y="409.25" x="948 954 960 966 972 978 984 990 996 1002 1008">-----------</tspan><tspan y="422" x="948 954 960 966 972 978 984 990 996 1002 1008"> O |   | X </tspan><tspan y="434.75" x="960 966 972 978 984 990 996">Move: 8</tspan><tspan y="447.5" x="966 972 978 984 990">V:133</tspan><tspan y="460.25" x="963 969 975 981 987 993">W:66.0</tspan><tspan y="473" x="963 969 975 981 987 993">D:67.0</tspan><tspan y="485.75" x="960 966 972 978 984 990 996">WR:1.00</tspan><tspan y="498.5" x="948 954 960 966 972 978 984 990 996 1002 1008">UCB1:1.3001</tspan></text>
<path stroke-width="1" stroke-linecap="butt" stroke-miterlimit="10" stroke-linejoin="miter" fill="none" stroke="#000000" d="M1010.809 321.977C1008.629 329.926 1006.395 338.055 1004.184 346.117"/>
<path d="M1007.609 346.867 1001.586 355.586 1000.859 345.016ZM1007.609 346.867"/>
<path stroke-width="1" stroke-linecap="butt" stroke-miterlimit="10" stroke-linejoin="miter" fill="none" stroke="#000000" d="M1007.609 346.867 1001.586 355.586 1000.859 345.016ZM1007.609 346.867"/>
<path d="M1040 357.5H1122V505.75H1040Z" fill="#ffffff"/>
<path stroke-width="1" stroke-linecap="butt" stroke-miterlimit="10" stroke-linejoin="miter" fill="none" stroke="#000000" d="M1040 357.5H1122V505.75H1040Z"/>
<text xml:space="preserve" transform="matrix(1 0 0 1 0 0)" font-size="10" font-family="CourierNewPSMT"><tspan y="371" x="1048 1054 1060 1066 1072 1078 1084 1090 1096 1102 1108"> X | O | X </tspan><tspan y="383.75" x="1048 1054 1060 1066 1072 1078 1084 1090 1096 1102 1108">-----------</tspan><tspan y="396.5" x="1048 1054 1060 1066 1072 1078 1084 1090 1096 1102 1108"> X | O | X </tspan><tspan y="409.25" x="1048 1054 1060 1066 1072 1078 1084 1090 1096 1102 1108">-----------</tspan><tspan y="422" x="1048 1054 1060 1066 1072 1078 1084 1090 1096 1102 1108"> O |   |   </tspan><tspan y="434.75" x="1060 1066 1072 1078 1084 1090 1096">Move: 5</tspan><tspan y="447.5" x="1066 1072 1078 1084 1090">V:133</tspan><tspan y="460.25" x="1063 1069 1075 1081 1087 1093">W:66.0</tspan><tspan y="473" x="1063 1069 1075 1081 1087 1093">D:67.0</tspan><tspan y="485.75" x="1060 1066 1072 1078 1084 1090 1096">WR:1.00</tspan><tspan y="498.5" x="1048 1054 1060 1066 1072 1078 1084 1090 1096 1102 1108">UCB1:1.3001</tspan></text>
<path stroke-width="1" stroke-linecap="butt" stroke-miterlimit="10" stroke-linejoin="miter" fill="none" stroke="#000000" d="M1051.191 321.977C1053.371 329.926 1055.605 338.055 1057.816 346.117"/>
<path d="M1061.141 345.016 1060.414 355.586 1054.391 346.867ZM1061.141 345.016"/>
<path stroke-width="1" stroke-linecap="butt" stroke-miterlimit="10" stroke-linejoin="miter" fill="none" stroke="#000000" d="M1061.141 345.016 1060.414 355.586 1054.391 346.867ZM1061.141 345.016"/>
<path d="M1240 357.5H1322V505.75H1240Z" fill="#ffffff"/>
<path stroke-width="1" stroke-linecap="butt" stroke-miterlimit="10" stroke-linejoin="miter" fill="none" stroke="#000000" d="M1240 357.5H1322V505.75H1240Z"/>
<text xml:space="preserve" transform="matrix(1 0 0 1 0 0)" font-size="10" font-family="CourierNewPSMT"><tspan y="371" x="1248 1254 1260 1266 1272 1278 1284 1290 1296 1302 1308"> X | O | X </tspan><tspan y="383.75" x="1248 1254 1260 1266 1272 1278 1284 1290 1296 1302 1308">-----------</tspan><tspan y="396.5" x="1248 1254 1260 1266 1272 1278 1284 1290 1296 1302 1308"> X | O |   </tspan><tspan y="409.25" x="1248 1254 1260 1266 1272 1278 1284 1290 1296 1302 1308">-----------</tspan><tspan y="422" x="1248 1254 1260 1266 1272 1278 1284 1290 1296 1302 1308"> O | X |   </tspan><tspan y="434.75" x="1260 1266 1272 1278 1284 1290 1296">Move: 7</tspan><tspan y="447.5" x="1266 1272 1278 1284 1290">V:132</tspan><tspan y="460.25" x="1266 1272 1278 1284 1290">W:0.0</tspan><tspan y="473" x="1260 1266 1272 1278 1284 1290 1296">D:132.0</tspan><tspan y="485.75" x="1260 1266 1272 1278 1284 1290 1296">WR:1.00</tspan><tspan y="498.5" x="1248 1254 1260 1266 1272 1278 1284 1290 1296 1302 1308">UCB1:1.3012</tspan></text>
<path stroke-width="1" stroke-linecap="butt" stroke-miterlimit="10" stroke-linejoin="miter" fill="none" stroke="#000000" d="M1072.281 278.469C1115.617 310.062 1183.797 359.766 1230.355 393.707"/>
<path d="M1232.414 390.875 1238.434 399.594 1228.289 396.531ZM1232.414 390.875"/>
<path stroke-width="1" stroke-linecap="butt" stroke-miterlimit="10" stroke-linejoin="miter" fill="none" stroke="#000000" d="M1232.414 390.875 1238.434 399.594 1228.289 396.531ZM1232.414 390.875"/>
<path d="M840 541.75H922V690H840Z" fill="#ffffff"/>
<path stroke-width="1" stroke-linecap="butt" stroke-miterlimit="10" stroke-linejoin="miter" fill="none" stroke="#000000" d="M840 541.75H922V690H840Z"/>
<text xml:space="preserve" transform="matrix(1 0 0 1 0 0)" font-size="10" font-family="CourierNewPSMT"><tspan y="555.25" x="848 854 860 866 872 878 884 890 896 902 908"> X | O | X </tspan><tspan y="568" x="848 854 860 866 872 878 884 890 896 902 908">-----------</tspan><tspan y="580.75" x="848 854 860 866 872 878 884 890 896 902 908"> X | O | O </tspan><tspan y="593.5" x="848 854 860 866 872 878 884 890 896 902 908">-----------</tspan><tspan y="606.25" x="848 854 860 866 872 878 884 890 896 902 908"> O |   | X </tspan><tspan y="619" x="860 866 872 878 884 890 896">Move: 5</tspan><tspan y="631.75" x="869 875 881 887">V:66</tspan><tspan y="644.5" x="866 872 878 884 890">W:0.0</tspan><tspan y="657.25" x="863 869 875 881 887 893">D:66.0</tspan><tspan y="670" x="860 866 872 878 884 890 896">WR:1.00</tspan><tspan y="682.75" x="848 854 860 866 872 878 884 890 896 902 908">UCB1:1.3850</tspan></text>
<path stroke-width="1" stroke-linecap="butt" stroke-miterlimit="10" stroke-linejoin="miter" fill="none" stroke="#000000" d="M940.613 506.227C936.055 514.535 931.387 523.047 926.766 531.465"/>
<path d="M929.98 532.883 922.102 539.969 923.844 529.516ZM929.98 532.883"/>
<path stroke-width="1" stroke-linecap="butt" stroke-miterlimit="10" stroke-linejoin="miter" fill="none" stroke="#000000" d="M929.98 532.883 922.102 539.969 923.844 529.516ZM929.98 532.883"/>
<path d="M940 541.75H1022V690H940Z" fill="#ffffff"/>
<path stroke-width="1" stroke-linecap="butt" stroke-miterlimit="10" stroke-linejoin="miter" fill="none" stroke="#000000" d="M940 541.75H1022V690H940Z"/>
<text xml:space="preserve" transform="matrix(1 0 0 1 0 0)" font-size="10" font-family="CourierNewPSMT"><tspan y="555.25" x="948 954 960 966 972 978 984 990 996 1002 1008"> X | O | X </tspan><tspan y="568" x="948 954 960 966 972 978 984 990 996 1002 1008">-----------</tspan><tspan y="580.75" x="948 954 960 966 972 978 984 990 996 1002 1008"> X | O |   </tspan><tspan y="593.5" x="948 954 960 966 972 978 984 990 996 1002 1008">-----------</tspan><tspan y="606.25" x="948 954 960 966 972 978 984 990 996 1002 1008"> O | O | X </tspan><tspan y="619" x="960 966 972 978 984 990 996">Move: 7</tspan><tspan y="631.75" x="969 975 981 987">V:66</tspan><tspan y="644.5" x="963 969 975 981 987 993">W:66.0</tspan><tspan y="657.25" x="966 972 978 984 990">D:0.0</tspan><tspan y="670" x="960 966 972 978 984 990 996">WR:1.00</tspan><tspan y="682.75" x="948 954 960 966 972 978 984 990 996 1002 1008">UCB1:1.3850</tspan></text>
<path stroke-width="1" stroke-linecap="butt" stroke-miterlimit="10" stroke-linejoin="miter" fill="none" stroke="#000000" d="M981 506.227C981 513.992 981 521.938 981 529.816"/>
<path d="M984.5 529.781 981 539.781 977.5 529.781ZM984.5 529.781"/>
<path stroke-width="1" stroke-linecap="butt" stroke-miterlimit="10" stroke-linejoin="miter" fill="none" stroke="#000000" d="M984.5 529.781 981 539.781 977.5 529.781ZM984.5 529.781"/>
<path d="M840 726H922V874.25H840Z" fill="#ffffff"/>
<path stroke-width="1" stroke-linecap="butt" stroke-miterlimit="10" stroke-linejoin="miter" fill="none" stroke="#000000" d="M840 726H922V874.25H840Z"/>
<text xml:space="preserve" transform="matrix(1 0 0 1 0 0)" font-size="10" font-family="CourierNewPSMT"><tspan y="739.5" x="848 854 860 866 872 878 884 890 896 902 908"> X | O | X </tspan><tspan y="752.25" x="848 854 860 866 872 878 884 890 896 902 908">-----------</tspan><tspan y="765" x="848 854 860 866 872 878 884 890 896 902 908"> X | O | O </tspan><tspan y="777.75" x="848 854 860 866 872 878 884 890 896 902 908">-----------</tspan><tspan y="790.5" x="848 854 860 866 872 878 884 890 896 902 908"> O | X | X </tspan><tspan y="803.25" x="860 866 872 878 884 890 896">Move: 7</tspan><tspan y="816" x="869 875 881 887">V:65</tspan><tspan y="828.75" x="866 872 878 884 890">W:0.0</tspan><tspan y="841.5" x="863 869 875 881 887 893">D:65.0</tspan><tspan y="854.25" x="860 866 872 878 884 890 896">WR:1.00</tspan><tspan y="867" x="848 854 860 866 872 878 884 890 896 902 908">UCB1:1.3590</tspan></text>
<path stroke-width="1" stroke-linecap="butt" stroke-miterlimit="10" stroke-linejoin="miter" fill="none" stroke="#000000" d="M881 690.477C881 698.242 881 706.188 881 714.066"/>
<path d="M884.5 714.031 881 724.031 877.5 714.031ZM884.5 714.031"/>
<path stroke-width="1" stroke-linecap="butt" stroke-miterlimit="10" stroke-linejoin="miter" fill="none" stroke="#000000" d="M884.5 714.031 881 724.031 877.5 714.031ZM884.5 714.031"/>
<path d="M1040 541.75H1122V690H1040Z" fill="#ffffff"/>
<path stroke-width="1" stroke-linecap="butt" stroke-miterlimit="10" stroke-linejoin="miter" fill="none" stroke="#000000" d="M1040 541.75H1122V690H1040Z"/>
<text xml:space="preserve" transform="matrix(1 0 0 1 0 0)" font-size="10" font-family="CourierNewPSMT"><tspan y="555.25" x="1048 1054 1060 1066 1072 1078 1084 1090 1096 1102 1108"> X | O | X </tspan><tspan y="568" x="1048 1054 1060 1066 1072 1078 1084 1090 1096 1102 1108">-----------</tspan><tspan y="580.75" x="1048 1054 1060 1066 1072 1078 1084 1090 1096 1102 1108"> X | O | X </tspan><tspan y="593.5" x="1048 1054 1060 1066 1072 1078 1084 1090 1096 1102 1108">-----------</tspan><tspan y="606.25" x="1048 1054 1060 1066 1072 1078 1084 1090 1096 1102 1108"> O |   | O </tspan><tspan y="619" x="1060 1066 1072 1078 1084 1090 1096">Move: 8</tspan><tspan y="631.75" x="1069 1075 1081 1087">V:66</tspan><tspan y="644.5" x="1066 1072 1078 1084 1090">W:0.0</tspan><tspan y="657.25" x="1063 1069 1075 1081 1087 1093">D:66.0</tspan><tspan y="670" x="1060 1066 1072 1078 1084 1090 1096">WR:1.00</tspan><tspan y="682.75" x="1048 1054 1060 1066 1072 1078 1084 1090 1096 1102 1108">UCB1:1.3850</tspan></text>
<path stroke-width="1" stroke-linecap="butt" stroke-miterlimit="10" stroke-linejoin="miter" fill="none" stroke="#000000" d="M1081 506.227C1081 513.992 1081 521.938 1081 529.816"/>
<path d="M1084.5 529.781 1081 539.781 1077.5 529.781ZM1084.5 529.781"/>
<path stroke-width="1" stroke-linecap="butt" stroke-miterlimit="10" stroke-linejoin="miter" fill="none" stroke="#000000" d="M1084.5 529.781 1081 539.781 1077.5 529.781ZM1084.5 529.781"/>
<path d="M1140 541.75H1222V690H1140Z" fill="#ffffff"/>
<path stroke-width="1" stroke-linecap="butt" stroke-miterlimit="10" stroke-linejoin="miter" fill="none" stroke="#000000" d="M1140 541.75H1222V690H1140Z"/>
<text xml:space="preserve" transform="matrix(1 0 0 1 0 0)" font-size="10" font-family="CourierNewPSMT"><tspan y="555.25" x="1148 1154 1160 1166 1172 1178 1184 1190 1196 1202 1208"> X | O | X </tspan><tspan y="568" x="1148 1154 1160 1166 1172 1178 1184 1190 1196 1202 1208">-----------</tspan><tspan y="580.75" x="1148 1154 1160 1166 1172 1178 1184 1190 1196 1202 1208"> X | O | X </tspan><tspan y="593.5" x="1148 1154 1160 1166 1172 1178 1184 1190 1196 1202 1208">-----------</tspan><tspan y="606.25" x="1148 1154 1160 1166 1172 1178 1184 1190 1196 1202 1208"> O | O |   </tspan><tspan y="619" x="1160 1166 1172 1178 1184 1190 1196">Move: 7</tspan><tspan y="631.75" x="1169 1175 1181 1187">V:66</tspan><tspan y="644.5" x="1163 1169 1175 1181 1187 1193">W:66.0</tspan><tspan y="657.25" x="1166 1172 1178 1184 1190">D:0.0</tspan><tspan y="670" x="1160 1166 1172 1178 1184 1190 1196">WR:1.00</tspan><tspan y="682.75" x="1148 1154 1160 1166 1172 1178 1184 1190 1196 1202 1208">UCB1:1.3850</tspan></text>
<path stroke-width="1" stroke-linecap="butt" stroke-miterlimit="10" stroke-linejoin="miter" fill="none" stroke="#000000" d="M1121.387 506.227C1125.945 514.535 1130.613 523.047 1135.234 531.465"/>
<path d="M1138.156 529.516 1139.898 539.969 1132.02 532.883ZM1138.156 529.516"/>
<path stroke-width="1" stroke-linecap="butt" stroke-miterlimit="10" stroke-linejoin="miter" fill="none" stroke="#000000" d="M1138.156 529.516 1139.898 539.969 1132.02 532.883ZM1138.156 529.516"/>
<path d="M1040 726H1122V874.25H1040Z" fill="#ffffff"/>
<path stroke-width="1" stroke-linecap="butt" stroke-miterlimit="10" stroke-linejoin="miter" fill="none" stroke="#000000" d="M1040 726H1122V874.25H1040Z"/>
<text xml:space="preserve" transform="matrix(1 0 0 1 0 0)" font-size="10" font-family="CourierNewPSMT"><tspan y="739.5" x="1048 1054 1060 1066 1072 1078 1084 1090 1096 1102 1108"> X | O | X </tspan><tspan y="752.25" x="1048 1054 1060 1066 1072 1078 1084 1090 1096 1102 1108">-----------</tspan><tspan y="765" x="1048 1054 1060 1066 1072 1078 1084 1090 1096 1102 1108"> X | O | X </tspan><tspan y="777.75" x="1048 1054 1060 1066 1072 1078 1084 1090 1096 1102 1108">-----------</tspan><tspan y="790.5" x="1048 1054 1060 1066 1072 1078 1084 1090 1096 1102 1108"> O | X | O </tspan><tspan y="803.25" x="1060 1066 1072 1078 1084 1090 1096">Move: 7</tspan><tspan y="816" x="1069 1075 1081 1087">V:65</tspan><tspan y="828.75" x="1066 1072 1078 1084 1090">W:0.0</tspan><tspan y="841.5" x="1063 1069 1075 1081 1087 1093">D:65.0</tspan><tspan y="854.25" x="1060 1066 1072 1078 1084 1090 1096">WR:1.00</tspan><tspan y="867" x="1048 1054 1060 1066 1072 1078 1084 1090 1096 1102 1108">UCB1:1.3590</tspan></text>
<path stroke-width="1" stroke-linecap="butt" stroke-miterlimit="10" stroke-linejoin="miter" fill="none" stroke="#000000" d="M1081 690.477C1081 698.242 1081 706.188 1081 714.066"/>
<path d="M1084.5 714.031 1081 724.031 1077.5 714.031ZM1084.5 714.031"/>
<path stroke-width="1" stroke-linecap="butt" stroke-miterlimit="10" stroke-linejoin="miter" fill="none" stroke="#000000" d="M1084.5 714.031 1081 724.031 1077.5 714.031ZM1084.5 714.031"/>
<path d="M1240 541.75H1322V690H1240Z" fill="#ffffff"/>
<path stroke-width="1" stroke-linecap="butt" stroke-miterlimit="10" stroke-linejoin="miter" fill="none" stroke="#000000" d="M1240 541.75H1322V690H1240Z"/>
<text xml:space="preserve" transform="matrix(1 0 0 1 0 0)" font-size="10" font-family="CourierNewPSMT"><tspan y="555.25" x="1248 1254 1260 1266 1272 1278 1284 1290 1296 1302 1308"> X | O | X </tspan><tspan y="568" x="1248 1254 1260 1266 1272 1278 1284 1290 1296 1302 1308">-----------</tspan><tspan y="580.75" x="1248 1254 1260 1266 1272 1278 1284 1290 1296 1302 1308"> X | O |   </tspan><tspan y="593.5" x="1248 1254 1260 1266 1272 1278 1284 1290 1296 1302 1308">-----------</tspan><tspan y="606.25" x="1248 1254 1260 1266 1272 1278 1284 1290 1296 1302 1308"> O | X | O </tspan><tspan y="619" x="1260 1266 1272 1278 1284 1290 1296">Move: 8</tspan><tspan y="631.75" x="1269 1275 1281 1287">V:66</tspan><tspan y="644.5" x="1266 1272 1278 1284 1290">W:0.0</tspan><tspan y="657.25" x="1263 1269 1275 1281 1287 1293">D:66.0</tspan><tspan y="670" x="1260 1266 1272 1278 1284 1290 1296">WR:1.00</tspan><tspan y="682.75" x="1248 1254 1260 1266 1272 1278 1284 1290 1296 1302 1308">UCB1:1.3847</tspan></text>
<path stroke-width="1" stroke-linecap="butt" stroke-miterlimit="10" stroke-linejoin="miter" fill="none" stroke="#000000" d="M1281 506.227C1281 513.992 1281 521.938 1281 529.816"/>
<path d="M1284.5 529.781 1281 539.781 1277.5 529.781ZM1284.5 529.781"/>
<path stroke-width="1" stroke-linecap="butt" stroke-miterlimit="10" stroke-linejoin="miter" fill="none" stroke="#000000" d="M1284.5 529.781 1281 539.781 1277.5 529.781ZM1284.5 529.781"/>
<path d="M1340 541.75H1422V690H1340Z" fill="#ffffff"/>
<path stroke-width="1" stroke-linecap="butt" stroke-miterlimit="10" stroke-linejoin="miter" fill="none" stroke="#000000" d="M1340 541.75H1422V690H1340Z"/>
<text xml:space="preserve" transform="matrix(1 0 0 1 0 0)" font-size="10" font-family="CourierNewPSMT"><tspan y="555.25" x="1348 1354 1360 1366 1372 1378 1384 1390 1396 1402 1408"> X | O | X </tspan><tspan y="568" x="1348 1354 1360 1366 1372 1378 1384 1390 1396 1402 1408">-----------</tspan><tspan y="580.75" x="1348 1354 1360 1366 1372 1378 1384 1390 1396 1402 1408"> X | O | O </tspan><tspan y="593.5" x="1348 1354 1360 1366 1372 1378 1384 1390 1396 1402 1408">-----------</tspan><tspan y="606.25" x="1348 1354 1360 1366 1372 1378 1384 1390 1396 1402 1408"> O | X |   </tspan><tspan y="619" x="1360 1366 1372 1378 1384 1390 1396">Move: 5</tspan><tspan y="631.75" x="1369 1375 1381 1387">V:65</tspan><tspan y="644.5" x="1366 1372 1378 1384 1390">W:0.0</tspan><tspan y="657.25" x="1363 1369 1375 1381 1387 1393">D:65.0</tspan><tspan y="670" x="1360 1366 1372 1378 1384 1390 1396">WR:1.00</tspan><tspan y="682.75" x="1348 1354 1360 1366 1372 1378 1384 1390 1396 1402 1408">UCB1:1.3876</tspan></text>
<path stroke-width="1" stroke-linecap="butt" stroke-miterlimit="10" stroke-linejoin="miter" fill="none" stroke="#000000" d="M1321.387 506.227C1325.945 514.535 1330.613 523.047 1335.234 531.465"/>
<path d="M1338.156 529.516 1339.898 539.969 1332.02 532.883ZM1338.156 529.516"/>
<path stroke-width="1" stroke-linecap="butt" stroke-miterlimit="10" stroke-linejoin="miter" fill="none" stroke="#000000" d="M1338.156 529.516 1339.898 539.969 1332.02 532.883ZM1338.156 529.516"/>
<path d="M1240 726H1322V874.25H1240Z" fill="#ffffff"/>
<path stroke-width="1" stroke-linecap="butt" stroke-miterlimit="10" stroke-linejoin="miter" fill="none" stroke="#000000" d="M1240 726H1322V874.25H1240Z"/>
<text xml:space="preserve" transform="matrix(1 0 0 1 0 0)" font-size="10" font-family="CourierNewPSMT"><tspan y="739.5" x="1248 1254 1260 1266 1272 1278 1284 1290 1296 1302 1308"> X | O | X </tspan><tspan y="752.25" x="1248 1254 1260 1266 1272 1278 1284 1290 1296 1302 1308">-----------</tspan><tspan y="765" x="1248 1254 1260 1266 1272 1278 1284 1290 1296 1302 1308"> X | O | X </tspan><tspan y="777.75" x="1248 1254 1260 1266 1272 1278 1284 1290 1296 1302 1308">-----------</tspan><tspan y="790.5" x="1248 1254 1260 1266 1272 1278 1284 1290 1296 1302 1308"> O | X | O </tspan><tspan y="803.25" x="1260 1266 1272 1278 1284 1290 1296">Move: 5</tspan><tspan y="816" x="1269 1275 1281 1287">V:65</tspan><tspan y="828.75" x="1266 1272 1278 1284 1290">W:0.0</tspan><tspan y="841.5" x="1263 1269 1275 1281 1287 1293">D:65.0</tspan><tspan y="854.25" x="1260 1266 1272 1278 1284 1290 1296">WR:1.00</tspan><tspan y="867" x="1248 1254 1260 1266 1272 1278 1284 1290 1296 1302 1308">UCB1:1.3590</tspan></text>
<path stroke-width="1" stroke-linecap="butt" stroke-miterlimit="10" stroke-linejoin="miter" fill="none" stroke="#000000" d="M1281 690.477C1281 698.242 1281 706.188 1281 714.066"/>
<path d="M1284.5 714.031 1281 724.031 1277.5 714.031ZM1284.5 714.031"/>
<path stroke-width="1" stroke-linecap="butt" stroke-miterlimit="10" stroke-linejoin="miter" fill="none" stroke="#000000" d="M1284.5 714.031 1281 724.031 1277.5 714.031ZM1284.5 714.031"/>
<path d="M1340 726H1422V874.25H1340Z" fill="#ffffff"/>
<path stroke-width="1" stroke-linecap="butt" stroke-miterlimit="10" stroke-linejoin="miter" fill="none" stroke="#000000" d="M1340 726H1422V874.25H1340Z"/>
<text xml:space="preserve" transform="matrix(1 0 0 1 0 0)" font-size="10" font-family="CourierNewPSMT"><tspan y="739.5" x="1348 1354 1360 1366 1372 1378 1384 1390 1396 1402 1408"> X | O | X </tspan><tspan y="752.25" x="1348 1354 1360 1366 1372 1378 1384 1390 1396 1402 1408">-----------</tspan><tspan y="765" x="1348 1354 1360 1366 1372 1378 1384 1390 1396 1402 1408"> X | O | O </tspan><tspan y="777.75" x="1348 1354 1360 1366 1372 1378 1384 1390 1396 1402 1408">-----------</tspan><tspan y="790.5" x="1348 1354 1360 1366 1372 1378 1384 1390 1396 1402 1408"> O | X | X </tspan><tspan y="803.25" x="1360 1366 1372 1378 1384 1390 1396">Move: 8</tspan><tspan y="816" x="1369 1375 1381 1387">V:64</tspan><tspan y="828.75" x="1366 1372 1378 1384 1390">W:0.0</tspan><tspan y="841.5" x="1363 1369 1375 1381 1387 1393">D:64.0</tspan><tspan y="854.25" x="1360 1366 1372 1378 1384 1390 1396">WR:1.00</tspan><tspan y="867" x="1348 1354 1360 1366 1372 1378 1384 1390 1396 1402 1408">UCB1:1.3612</tspan></text>
<path stroke-width="1" stroke-linecap="butt" stroke-miterlimit="10" stroke-linejoin="miter" fill="none" stroke="#000000" d="M1381 690.477C1381 698.242 1381 706.188 1381 714.066"/>
<path d="M1384.5 714.031 1381 724.031 1377.5 714.031ZM1384.5 714.031"/>
<path stroke-width="1" stroke-linecap="butt" stroke-miterlimit="10" stroke-linejoin="miter" fill="none" stroke="#000000" d="M1384.5 714.031 1381 724.031 1377.5 714.031ZM1384.5 714.031"/>
<path d="M1540 357.5H1622V505.75H1540Z" fill="#ffffff"/>
<path stroke-width="1" stroke-linecap="butt" stroke-miterlimit="10" stroke-linejoin="miter" fill="none" stroke="#000000" d="M1540 357.5H1622V505.75H1540Z"/>
<text xml:space="preserve" transform="matrix(1 0 0 1 0 0)" font-size="10" font-family="CourierNewPSMT"><tspan y="371" x="1548 1554 1560 1566 1572 1578 1584 1590 1596 1602 1608"> X |   | X </tspan><tspan y="383.75" x="1548 1554 1560 1566 1572 1578 1584 1590 1596 1602 1608">-----------</tspan><tspan y="396.5" x="1548 1554 1560 1566 1572 1578 1584 1590 1596 1602 1608"> X | O | O </tspan><tspan y="409.25" x="1548 1554 1560 1566 1572 1578 1584 1590 1596 1602 1608">-----------</tspan><tspan y="422" x="1548 1554 1560 1566 1572 1578 1584 1590 1596 1602 1608"> O | X |   </tspan><tspan y="434.75" x="1560 1566 1572 1578 1584 1590 1596">Move: 7</tspan><tspan y="447.5" x="1569 1575 1581 1587">V:61</tspan><tspan y="460.25" x="1566 1572 1578 1584 1590">W:0.0</tspan><tspan y="473" x="1563 1569 1575 1581 1587 1593">D:55.0</tspan><tspan y="485.75" x="1560 1566 1572 1578 1584 1590 1596">WR:0.90</tspan><tspan y="498.5" x="1548 1554 1560 1566 1572 1578 1584 1590 1596 1602 1608">UCB1:1.3036</tspan></text>
<path stroke-width="1" stroke-linecap="butt" stroke-miterlimit="10" stroke-linejoin="miter" fill="none" stroke="#000000" d="M1610.809 321.977C1608.629 329.926 1606.395 338.055 1604.184 346.117"/>
<path d="M1607.609 346.867 1601.586 355.586 1600.859 345.016ZM1607.609 346.867"/>
<path stroke-width="1" stroke-linecap="butt" stroke-miterlimit="10" stroke-linejoin="miter" fill="none" stroke="#000000" d="M1607.609 346.867 1601.586 355.586 1600.859 345.016ZM1607.609 346.867"/>
<path d="M1640 357.5H1722V505.75H1640Z" fill="#ffffff"/>
<path stroke-width="1" stroke-linecap="butt" stroke-miterlimit="10" stroke-linejoin="miter" fill="none" stroke="#000000" d="M1640 357.5H1722V505.75H1640Z"/>
<text xml:space="preserve" transform="matrix(1 0 0 1 0 0)" font-size="10" font-family="CourierNewPSMT"><tspan y="371" x="1648 1654 1660 1666 1672 1678 1684 1690 1696 1702 1708"> X |   | X </tspan><tspan y="383.75" x="1648 1654 1660 1666 1672 1678 1684 1690 1696 1702 1708">-----------</tspan><tspan y="396.5" x="1648 1654 1660 1666 1672 1678 1684 1690 1696 1702 1708"> X | O | O </tspan><tspan y="409.25" x="1648 1654 1660 1666 1672 1678 1684 1690 1696 1702 1708">-----------</tspan><tspan y="422" x="1648 1654 1660 1666 1672 1678 1684 1690 1696 1702 1708"> O |   | X </tspan><tspan y="434.75" x="1660 1666 1672 1678 1684 1690 1696">Move: 8</tspan><tspan y="447.5" x="1669 1675 1681 1687">V:70</tspan><tspan y="460.25" x="1666 1672 1678 1684 1690">W:0.0</tspan><tspan y="473" x="1663 1669 1675 1681 1687 1693">D:65.0</tspan><tspan y="485.75" x="1660 1666 1672 1678 1684 1690 1696">WR:0.93</tspan><tspan y="498.5" x="1648 1654 1660 1666 1672 1678 1684 1690 1696 1702 1708">UCB1:1.3038</tspan></text>
<path stroke-width="1" stroke-linecap="butt" stroke-miterlimit="10" stroke-linejoin="miter" fill="none" stroke="#000000" d="M1651.191 321.977C1653.371 329.926 1655.605 338.055 1657.816 346.117"/>
<path d="M1661.141 345.016 1660.414 355.586 1654.391 346.867ZM1661.141 345.016"/>
<path stroke-width="1" stroke-linecap="butt" stroke-miterlimit="10" stroke-linejoin="miter" fill="none" stroke="#000000" d="M1661.141 345.016 1660.414 355.586 1654.391 346.867ZM1661.141 345.016"/>
<path d="M1740 357.5H1822V505.75H1740Z" fill="#ffffff"/>
<path stroke-width="1" stroke-linecap="butt" stroke-miterlimit="10" stroke-linejoin="miter" fill="none" stroke="#000000" d="M1740 357.5H1822V505.75H1740Z"/>
<text xml:space="preserve" transform="matrix(1 0 0 1 0 0)" font-size="10" font-family="CourierNewPSMT"><tspan y="371" x="1748 1754 1760 1766 1772 1778 1784 1790 1796 1802 1808"> X | X | X </tspan><tspan y="383.75" x="1748 1754 1760 1766 1772 1778 1784 1790 1796 1802 1808">-----------</tspan><tspan y="396.5" x="1748 1754 1760 1766 1772 1778 1784 1790 1796 1802 1808"> X | O | O </tspan><tspan y="409.25" x="1748 1754 1760 1766 1772 1778 1784 1790 1796 1802 1808">-----------</tspan><tspan y="422" x="1748 1754 1760 1766 1772 1778 1784 1790 1796 1802 1808"> O |   |   </tspan><tspan y="434.75" x="1760 1766 1772 1778 1784 1790 1796">Move: 1</tspan><tspan y="447.5" x="1772 1778 1784">V:6</tspan><tspan y="460.25" x="1766 1772 1778 1784 1790">W:0.0</tspan><tspan y="473" x="1766 1772 1778 1784 1790">D:0.0</tspan><tspan y="485.75" x="1760 1766 1772 1778 1784 1790 1796">WR:0.00</tspan><tspan y="498.5" x="1748 1754 1760 1766 1772 1778 1784 1790 1796 1802 1808">UCB1:1.2816</tspan></text>
<path stroke-width="1" stroke-linecap="butt" stroke-miterlimit="10" stroke-linejoin="miter" fill="none" stroke="#000000" d="M1672.363 290.672C1690.969 310.402 1712.789 334.551 1731 357.5 1731.629 358.289 1732.254 359.09 1732.883 359.895"/>
<path d="M1735.418 357.445 1738.688 367.523 1729.848 361.684ZM1735.418 357.445"/>
<path stroke-width="1" stroke-linecap="butt" stroke-miterlimit="10" stroke-linejoin="miter" fill="none" stroke="#000000" d="M1735.418 357.445 1738.688 367.523 1729.848 361.684ZM1735.418 357.445"/>
<path d="M1440 541.75H1522V690H1440Z" fill="#ffffff"/>
<path stroke-width="1" stroke-linecap="butt" stroke-miterlimit="10" stroke-linejoin="miter" fill="none" stroke="#000000" d="M1440 541.75H1522V690H1440Z"/>
<text xml:space="preserve" transform="matrix(1 0 0 1 0 0)" font-size="10" font-family="CourierNewPSMT"><tspan y="555.25" x="1448 1454 1460 1466 1472 1478 1484 1490 1496 1502 1508"> X |   | X </tspan><tspan y="568" x="1448 1454 1460 1466 1472 1478 1484 1490 1496 1502 1508">-----------</tspan><tspan y="580.75" x="1448 1454 1460 1466 1472 1478 1484 1490 1496 1502 1508"> X | O | O </tspan><tspan y="593.5" x="1448 1454 1460 1466 1472 1478 1484 1490 1496 1502 1508">-----------</tspan><tspan y="606.25" x="1448 1454 1460 1466 1472 1478 1484 1490 1496 1502 1508"> O | X | O </tspan><tspan y="619" x="1460 1466 1472 1478 1484 1490 1496">Move: 8</tspan><tspan y="631.75" x="1472 1478 1484">V:5</tspan><tspan y="644.5" x="1466 1472 1478 1484 1490">W:0.0</tspan><tspan y="657.25" x="1466 1472 1478 1484 1490">D:0.0</tspan><tspan y="670" x="1460 1466 1472 1478 1484 1490 1496">WR:0.00</tspan><tspan y="682.75" x="1448 1454 1460 1466 1472 1478 1484 1490 1496 1502 1508">UCB1:1.2823</tspan></text>
<path stroke-width="1" stroke-linecap="butt" stroke-miterlimit="10" stroke-linejoin="miter" fill="none" stroke="#000000" d="M1540.613 506.227C1536.055 514.535 1531.387 523.047 1526.766 531.465"/>
<path d="M1529.98 532.883 1522.102 539.969 1523.844 529.516ZM1529.98 532.883"/>
<path stroke-width="1" stroke-linecap="butt" stroke-miterlimit="10" stroke-linejoin="miter" fill="none" stroke="#000000" d="M1529.98 532.883 1522.102 539.969 1523.844 529.516ZM1529.98 532.883"/>
<path d="M1540 541.75H1622V690H1540Z" fill="#ffffff"/>
<path stroke-width="1" stroke-linecap="butt" stroke-miterlimit="10" stroke-linejoin="miter" fill="none" stroke="#000000" d="M1540 541.75H1622V690H1540Z"/>
<text xml:space="preserve" transform="matrix(1 0 0 1 0 0)" font-size="10" font-family="CourierNewPSMT"><tspan y="555.25" x="1548 1554 1560 1566 1572 1578 1584 1590 1596 1602 1608"> X | O | X </tspan><tspan y="568" x="1548 1554 1560 1566 1572 1578 1584 1590 1596 1602 1608">-----------</tspan><tspan y="580.75" x="1548 1554 1560 1566 1572 1578 1584 1590 1596 1602 1608"> X | O | O </tspan><tspan y="593.5" x="1548 1554 1560 1566 1572 1578 1584 1590 1596 1602 1608">-----------</tspan><tspan y="606.25" x="1548 1554 1560 1566 1572 1578 1584 1590 1596 1602 1608"> O | X |   </tspan><tspan y="619" x="1560 1566 1572 1578 1584 1590 1596">Move: 1</tspan><tspan y="631.75" x="1569 1575 1581 1587">V:55</tspan><tspan y="644.5" x="1566 1572 1578 1584 1590">W:0.0</tspan><tspan y="657.25" x="1563 1569 1575 1581 1587 1593">D:55.0</tspan><tspan y="670" x="1560 1566 1572 1578 1584 1590 1596">WR:1.00</tspan><tspan y="682.75" x="1548 1554 1560 1566 1572 1578 1584 1590 1596 1602 1608">UCB1:1.3866</tspan></text>
<path stroke-width="1" stroke-linecap="butt" stroke-miterlimit="10" stroke-linejoin="miter" fill="none" stroke="#000000" d="M1581 506.227C1581 513.992 1581 521.938 1581 529.816"/>
<path d="M1584.5 529.781 1581 539.781 1577.5 529.781ZM1584.5 529.781"/>
<path stroke-width="1" stroke-linecap="butt" stroke-miterlimit="10" stroke-linejoin="miter" fill="none" stroke="#000000" d="M1584.5 529.781 1581 539.781 1577.5 529.781ZM1584.5 529.781"/>
<path d="M1440 726H1522V874.25H1440Z" fill="#ffffff"/>
<path stroke-width="1" stroke-linecap="butt" stroke-miterlimit="10" stroke-linejoin="miter" fill="none" stroke="#000000" d="M1440 726H1522V874.25H1440Z"/>
<text xml:space="preserve" transform="matrix(1 0 0 1 0 0)" font-size="10" font-family="CourierNewPSMT"><tspan y="739.5" x="1448 1454 1460 1466 1472 1478 1484 1490 1496 1502 1508"> X | X | X </tspan><tspan y="752.25" x="1448 1454 1460 1466 1472 1478 1484 1490 1496 1502 1508">-----------</tspan><tspan y="765" x="1448 1454 1460 1466 1472 1478 1484 1490 1496 1502 1508"> X | O | O </tspan><tspan y="777.75" x="1448 1454 1460 1466 1472 1478 1484 1490 1496 1502 1508">-----------</tspan><tspan y="790.5" x="1448 1454 1460 1466 1472 1478 1484 1490 1496 1502 1508"> O | X | O </tspan><tspan y="803.25" x="1460 1466 1472 1478 1484 1490 1496">Move: 1</tspan><tspan y="816" x="1472 1478 1484">V:4</tspan><tspan y="828.75" x="1466 1472 1478 1484 1490">W:0.0</tspan><tspan y="841.5" x="1466 1472 1478 1484 1490">D:0.0</tspan><tspan y="854.25" x="1460 1466 1472 1478 1484 1490 1496">WR:0.00</tspan><tspan y="867" x="1448 1454 1460 1466 1472 1478 1484 1490 1496 1502 1508">UCB1:0.8971</tspan></text>
<path stroke-width="1" stroke-linecap="butt" stroke-miterlimit="10" stroke-linejoin="miter" fill="none" stroke="#000000" d="M1481 690.477C1481 698.242 1481 706.188 1481 714.066"/>
<path d="M1484.5 714.031 1481 724.031 1477.5 714.031ZM1484.5 714.031"/>
<path stroke-width="1" stroke-linecap="butt" stroke-miterlimit="10" stroke-linejoin="miter" fill="none" stroke="#000000" d="M1484.5 714.031 1481 724.031 1477.5 714.031ZM1484.5 714.031"/>
<path d="M1540 726H1622V874.25H1540Z" fill="#ffffff"/>
<path stroke-width="1" stroke-linecap="butt" stroke-miterlimit="10" stroke-linejoin="miter" fill="none" stroke="#000000" d="M1540 726H1622V874.25H1540Z"/>
<text xml:space="preserve" transform="matrix(1 0 0 1 0 0)" font-size="10" font-family="CourierNewPSMT"><tspan y="739.5" x="1548 1554 1560 1566 1572 1578 1584 1590 1596 1602 1608"> X | O | X </tspan><tspan y="752.25" x="1548 1554 1560 1566 1572 1578 1584 1590 1596 1602 1608">-----------</tspan><tspan y="765" x="1548 1554 1560 1566 1572 1578 1584 1590 1596 1602 1608"> X | O | O </tspan><tspan y="777.75" x="1548 1554 1560 1566 1572 1578 1584 1590 1596 1602 1608">-----------</tspan><tspan y="790.5" x="1548 1554 1560 1566 1572 1578 1584 1590 1596 1602 1608"> O | X | X </tspan><tspan y="803.25" x="1560 1566 1572 1578 1584 1590 1596">Move: 8</tspan><tspan y="816" x="1569 1575 1581 1587">V:54</tspan><tspan y="828.75" x="1566 1572 1578 1584 1590">W:0.0</tspan><tspan y="841.5" x="1563 1569 1575 1581 1587 1593">D:54.0</tspan><tspan y="854.25" x="1560 1566 1572 1578 1584 1590 1596">WR:1.00</tspan><tspan y="867" x="1548 1554 1560 1566 1572 1578 1584 1590 1596 1602 1608">UCB1:1.3853</tspan></text>
<path stroke-width="1" stroke-linecap="butt" stroke-miterlimit="10" stroke-linejoin="miter" fill="none" stroke="#000000" d="M1581 690.477C1581 698.242 1581 706.188 1581 714.066"/>
<path d="M1584.5 714.031 1581 724.031 1577.5 714.031ZM1584.5 714.031"/>
<path stroke-width="1" stroke-linecap="butt" stroke-miterlimit="10" stroke-linejoin="miter" fill="none" stroke="#000000" d="M1584.5 714.031 1581 724.031 1577.5 714.031ZM1584.5 714.031"/>
<path d="M1640 541.75H1722V690H1640Z" fill="#ffffff"/>
<path stroke-width="1" stroke-linecap="butt" stroke-miterlimit="10" stroke-linejoin="miter" fill="none" stroke="#000000" d="M1640 541.75H1722V690H1640Z"/>
<text xml:space="preserve" transform="matrix(1 0 0 1 0 0)" font-size="10" font-family="CourierNewPSMT"><tspan y="555.25" x="1648 1654 1660 1666 1672 1678 1684 1690 1696 1702 1708"> X |   | X </tspan><tspan y="568" x="1648 1654 1660 1666 1672 1678 1684 1690 1696 1702 1708">-----------</tspan><tspan y="580.75" x="1648 1654 1660 1666 1672 1678 1684 1690 1696 1702 1708"> X | O | O </tspan><tspan y="593.5" x="1648 1654 1660 1666 1672 1678 1684 1690 1696 1702 1708">-----------</tspan><tspan y="606.25" x="1648 1654 1660 1666 1672 1678 1684 1690 1696 1702 1708"> O | O | X </tspan><tspan y="619" x="1660 1666 1672 1678 1684 1690 1696">Move: 7</tspan><tspan y="631.75" x="1672 1678 1684">V:5</tspan><tspan y="644.5" x="1666 1672 1678 1684 1690">W:0.0</tspan><tspan y="657.25" x="1666 1672 1678 1684 1690">D:0.0</tspan><tspan y="670" x="1660 1666 1672 1678 1684 1690 1696">WR:0.00</tspan><tspan y="682.75" x="1648 1654 1660 1666 1672 1678 1684 1690 1696 1702 1708">UCB1:1.3036</tspan></text>
<path stroke-width="1" stroke-linecap="butt" stroke-miterlimit="10" stroke-linejoin="miter" fill="none" stroke="#000000" d="M1681 506.227C1681 513.992 1681 521.938 1681 529.816"/>
<path d="M1684.5 529.781 1681 539.781 1677.5 529.781ZM1684.5 529.781"/>
<path stroke-width="1" stroke-linecap="butt" stroke-miterlimit="10" stroke-linejoin="miter" fill="none" stroke="#000000" d="M1684.5 529.781 1681 539.781 1677.5 529.781ZM1684.5 529.781"/>
<path d="M1740 541.75H1822V690H1740Z" fill="#ffffff"/>
<path stroke-width="1" stroke-linecap="butt" stroke-miterlimit="10" stroke-linejoin="miter" fill="none" stroke="#000000" d="M1740 541.75H1822V690H1740Z"/>
<text xml:space="preserve" transform="matrix(1 0 0 1 0 0)" font-size="10" font-family="CourierNewPSMT"><tspan y="555.25" x="1748 1754 1760 1766 1772 1778 1784 1790 1796 1802 1808"> X | O | X </tspan><tspan y="568" x="1748 1754 1760 1766 1772 1778 1784 1790 1796 1802 1808">-----------</tspan><tspan y="580.75" x="1748 1754 1760 1766 1772 1778 1784 1790 1796 1802 1808"> X | O | O </tspan><tspan y="593.5" x="1748 1754 1760 1766 1772 1778 1784 1790 1796 1802 1808">-----------</tspan><tspan y="606.25" x="1748 1754 1760 1766 1772 1778 1784 1790 1796 1802 1808"> O |   | X </tspan><tspan y="619" x="1760 1766 1772 1778 1784 1790 1796">Move: 1</tspan><tspan y="631.75" x="1769 1775 1781 1787">V:64</tspan><tspan y="644.5" x="1766 1772 1778 1784 1790">W:0.0</tspan><tspan y="657.25" x="1763 1769 1775 1781 1787 1793">D:64.0</tspan><tspan y="670" x="1760 1766 1772 1778 1784 1790 1796">WR:1.00</tspan><tspan y="682.75" x="1748 1754 1760 1766 1772 1778 1784 1790 1796 1802 1808">UCB1:1.3644</tspan></text>
<path stroke-width="1" stroke-linecap="butt" stroke-miterlimit="10" stroke-linejoin="miter" fill="none" stroke="#000000" d="M1721.387 506.227C1725.945 514.535 1730.613 523.047 1735.234 531.465"/>
<path d="M1738.156 529.516 1739.898 539.969 1732.02 532.883ZM1738.156 529.516"/>
<path stroke-width="1" stroke-linecap="butt" stroke-miterlimit="10" stroke-linejoin="miter" fill="none" stroke="#000000" d="M1738.156 529.516 1739.898 539.969 1732.02 532.883ZM1738.156 529.516"/>
<path d="M1640 726H1722V874.25H1640Z" fill="#ffffff"/>
<path stroke-width="1" stroke-linecap="butt" stroke-miterlimit="10" stroke-linejoin="miter" fill="none" stroke="#000000" d="M1640 726H1722V874.25H1640Z"/>
<text xml:space="preserve" transform="matrix(1 0 0 1 0 0)" font-size="10" font-family="CourierNewPSMT"><tspan y="739.5" x="1648 1654 1660 1666 1672 1678 1684 1690 1696 1702 1708"> X | X | X </tspan><tspan y="752.25" x="1648 1654 1660 1666 1672 1678 1684 1690 1696 1702 1708">-----------</tspan><tspan y="765" x="1648 1654 1660 1666 1672 1678 1684 1690 1696 1702 1708"> X | O | O </tspan><tspan y="777.75" x="1648 1654 1660 1666 1672 1678 1684 1690 1696 1702 1708">-----------</tspan><tspan y="790.5" x="1648 1654 1660 1666 1672 1678 1684 1690 1696 1702 1708"> O | O | X </tspan><tspan y="803.25" x="1660 1666 1672 1678 1684 1690 1696">Move: 1</tspan><tspan y="816" x="1672 1678 1684">V:4</tspan><tspan y="828.75" x="1666 1672 1678 1684 1690">W:0.0</tspan><tspan y="841.5" x="1666 1672 1678 1684 1690">D:0.0</tspan><tspan y="854.25" x="1660 1666 1672 1678 1684 1690 1696">WR:0.00</tspan><tspan y="867" x="1648 1654 1660 1666 1672 1678 1684 1690 1696 1702 1708">UCB1:0.8971</tspan></text>
<path stroke-width="1" stroke-linecap="butt" stroke-miterlimit="10" stroke-linejoin="miter" fill="none" stroke="#000000" d="M1681 690.477C1681 698.242 1681 706.188 1681 714.066"/>
<path d="M1684.5 714.031 1681 724.031 1677.5 714.031ZM1684.5 714.031"/>
<path stroke-width="1" stroke-linecap="butt" stroke-miterlimit="10" stroke-linejoin="miter" fill="none" stroke="#000000" d="M1684.5 714.031 1681 724.031 1677.5 714.031ZM1684.5 714.031"/>
<path d="M1740 726H1822V874.25H1740Z" fill="#ffffff"/>
<path stroke-width="1" stroke-linecap="butt" stroke-miterlimit="10" stroke-linejoin="miter" fill="none" stroke="#000000" d="M1740 726H1822V874.25H1740Z"/>
<text xml:space="preserve" transform="matrix(1 0 0 1 0 0)" font-size="10" font-family="CourierNewPSMT"><tspan y="739.5" x="1748 1754 1760 1766 1772 1778 1784 1790 1796 1802 1808"> X | O | X </tspan><tspan y="752.25" x="1748 1754 1760 1766 1772 1778 1784 1790 1796 1802 1808">-----------</tspan><tspan y="765" x="1748 1754 1760 1766 1772 1778 1784 1790 1796 1802 1808"> X | O | O </tspan><tspan y="777.75" x="1748 1754 1760 1766 1772 1778 1784 1790 1796 1802 1808">-----------</tspan><tspan y="790.5" x="1748 1754 1760 1766 1772 1778 1784 1790 1796 1802 1808"> O | X | X </tspan><tspan y="803.25" x="1760 1766 1772 1778 1784 1790 1796">Move: 7</tspan><tspan y="816" x="1769 1775 1781 1787">V:63</tspan><tspan y="828.75" x="1766 1772 1778 1784 1790">W:0.0</tspan><tspan y="841.5" x="1763 1769 1775 1781 1787 1793">D:63.0</tspan><tspan y="854.25" x="1760 1766 1772 1778 1784 1790 1796">WR:1.00</tspan><tspan y="867" x="1748 1754 1760 1766 1772 1778 1784 1790 1796 1802 1808">UCB1:1.3634</tspan></text>
<path stroke-width="1" stroke-linecap="butt" stroke-miterlimit="10" stroke-linejoin="miter" fill="none" stroke="#000000" d="M1781 690.477C1781 698.242 1781 706.188 1781 714.066"/>
<path d="M1784.5 714.031 1781 724.031 1777.5 714.031ZM1784.5 714.031"/>
<path stroke-width="1" stroke-linecap="butt" stroke-miterlimit="10" stroke-linejoin="miter" fill="none" stroke="#000000" d="M1784.5 714.031 1781 724.031 1777.5 714.031ZM1784.5 714.031"/>
</g>
</svg>
